#!OML:ASF F:\VICON\USERDATA\INSTALL\rory3\rory3.ASF
:FULLY-SPECIFIED
:DEGREES
474
root 0.770057 15.8119 36.7832 0.904399 -1.70761 5.95479
lowerback 12.86 0.103412 -9.56845
upperback -4.57141 -1.46062 0.992719
thorax -12.106 0.101258 6.86198
lowerneck -9.60556 -5.73599 -5.16244
upperneck 19.4131 -8.04472 4.82378
head 7.9846 -3.77185 1.64585
rclavicle 1.31695e-014 -9.54166e-015
rhumerus -49.2369 -10.4884 -76.9615
rradius 24.7799
rwrist 1.0102
rhand -8.06905 19.1589
rfingers 7.12502
rthumb 17.8424 -10.0426
lclavicle 1.31695e-014 -9.54166e-015
lhumerus -33.2232 3.52227 85.6486
lradius 30.7968
lwrist 4.46395
lhand -5.25998 19.8744
lfingers 7.12502
lthumb 20.5436 48.8074
rfemur -32.7267 11.9019 11.4812
rtibia 33.3072
rfoot -9.305 -14.2835
rtoes 6.50498
lfemur 4.6937 -13.4986 -34.9665
ltibia 15.7735
lfoot -15.9661 9.25986
ltoes 15.6375
475
root 0.76794 15.8191 36.9028 1.08372 -1.52538 6.09178
lowerback 12.5499 0.0801573 -9.4969
upperback -4.53722 -1.45308 0.908113
thorax -11.8824 0.0800739 6.71267
lowerneck -9.93506 -5.82874 -5.12179
upperneck 19.6713 -8.1643 4.74824
head 8.13195 -3.82338 1.5901
rclavicle -3.00662e-015 0
rhumerus -48.9041 -10.8108 -76.9166
rradius 24.6048
rwrist 1.19827
rhand -8.08825 19.2958
rfingers 7.12502
rthumb 17.8239 -9.90736
lclavicle -3.00662e-015 0
lhumerus -32.9865 3.51826 85.7145
lradius 30.9581
lwrist 4.55809
lhand -5.25352 19.2004
lfingers 7.12502
lthumb 20.5498 48.1328
rfemur -32.595 13.1882 10.4924
rtibia 31.0376
rfoot -9.86815 -15.0193
rtoes 6.46378
lfemur 5.73333 -13.6173 -35.1827
ltibia 14.4421
lfoot -15.7116 9.25195
ltoes 15.5756
476
root 0.76391 15.8232 37.0242 1.25412 -1.37267 6.58746
lowerback 12.1009 0.067343 -9.84321
upperback -4.41014 -1.4932 0.723946
thorax -11.4611 0.0480922 6.69439
lowerneck -10.1547 -5.86517 -5.02797
upperneck 19.6103 -8.21778 4.74783
head 8.15017 -3.8378 1.56283
rclavicle -6.95746e-015 4.6118e-014
rhumerus -48.4772 -10.8981 -77.0978
rradius 24.6768
rwrist 1.22429
rhand -8.01486 19.3
rfingers 7.12502
rthumb 17.8945 -9.89676
lclavicle -6.95746e-015 4.6118e-014
lhumerus -32.5543 3.37035 85.8001
lradius 30.8723
lwrist 4.91162
lhand -5.53072 18.3299
lfingers 7.12502
lthumb 20.2834 47.2908
rfemur -32.5924 14.3451 9.10404
rtibia 28.9698
rfoot -10.2677 -15.6963
rtoes 5.28308
lfemur 6.94576 -13.7388 -35.8044
ltibia 12.8936
lfoot -15.3175 9.34822
ltoes 15.5438
477
root 0.753348 15.8231 37.1423 1.32507 -1.23684 6.6753
lowerback 12.1474 0.0741527 -9.85436
upperback -4.5381 -1.50182 0.694441
thorax -11.6354 0.0584773 6.6736
lowerneck -9.94301 -5.87086 -5.08416
upperneck 19.6158 -8.22548 4.74965
head 8.1166 -3.84946 1.57791
rclavicle -6.06293e-015 -5.56597e-015
rhumerus -48.5844 -10.6855 -77.2377
rradius 24.8581
rwrist 1.04962
rhand -8.04507 19.4428
rfingers 7.12502
rthumb 17.8655 -9.75655
lclavicle -6.06293e-015 -5.56597e-015
lhumerus -32.6421 3.00111 85.9742
lradius 30.7162
lwrist 5.33333
lhand -5.78325 17.7116
lfingers 7.12502
lthumb 20.0407 46.6981
rfemur -32.6341 15.9639 8.09187
rtibia 27.2468
rfoot -11.0829 -16.6608
rtoes 4.48696
lfemur 8.60827 -13.6678 -35.9359
ltibia 10.8006
lfoot -14.7617 9.27397
ltoes 15.9975
478
root 0.733628 15.8238 37.2631 1.33459 -1.15572 6.4031
lowerback 12.1897 0.0860226 -9.66087
upperback -4.62453 -1.4515 0.793632
thorax -11.7685 0.0836505 6.66703
lowerneck -9.72668 -5.8965 -5.09375
upperneck 19.5811 -8.25191 4.67802
head 8.06458 -3.874 1.55965
rclavicle 5.14355e-015 8.74653e-015
rhumerus -48.557 -10.4847 -77.3964
rradius 24.8193
rwrist 0.816461
rhand -8.26695 19.6947
rfingers 7.12502
rthumb 17.652 -9.52399
lclavicle 5.14355e-015 8.74653e-015
lhumerus -32.6678 2.92322 86.0518
lradius 30.574
lwrist 5.38478
lhand -5.71907 17.8809
lfingers 7.12502
lthumb 20.1024 46.8609
rfemur -32.8357 18.3122 7.29098
rtibia 25.9412
rfoot -12.2407 -18.2539
rtoes 3.97632
lfemur 10.7643 -13.4073 -35.6323
ltibia 7.93265
lfoot -13.9994 8.97959
ltoes 16.8574
479
root 0.717101 15.8273 37.3817 1.35095 -0.976795 6.40865
lowerback 12.4328 0.0709319 -9.68314
upperback -4.83174 -1.51163 0.818433
thorax -12.1434 0.0881606 6.73311
lowerneck -9.49788 -5.90989 -5.22929
upperneck 19.7725 -8.27163 4.69333
head 8.09482 -3.89462 1.58998
rclavicle -4.91992e-015 1.74931e-014
rhumerus -48.7214 -10.317 -77.4256
rradius 24.7961
rwrist 0.847713
rhand -8.4244 19.8206
rfingers 7.12502
rthumb 17.5004 -9.41173
lclavicle -4.91992e-015 1.74931e-014
lhumerus -33.0174 3.08709 86.0833
lradius 30.7638
lwrist 5.11812
lhand -5.46981 18.7323
lfingers 7.12502
lthumb 20.342 47.6869
rfemur -33.111 20.3656 6.20275
rtibia 24.9587
rfoot -13.5118 -19.4732
rtoes 4.63014
lfemur 13.5457 -13.2487 -35.6132
ltibia 3.65839
lfoot -12.3054 8.97208
ltoes 15.5227
480
root 0.712968 15.8252 37.5102 1.43799 -0.632988 7.14351
lowerback 12.0447 -0.00564202 -10.2587
upperback -4.72326 -1.68658 0.608339
thorax -11.7519 0.0111107 6.84624
lowerneck -9.54211 -5.93366 -5.18791
upperneck 19.6761 -8.29995 4.67517
head 8.0696 -3.90647 1.57359
rclavicle 8.79622e-015 1.59028e-015
rhumerus -48.4373 -10.5195 -77.3498
rradius 24.8913
rwrist 1.17126
rhand -8.32649 19.908
rfingers 7.12502
rthumb 17.5947 -9.3159
lclavicle 8.79622e-015 1.59028e-015
lhumerus -32.8005 3.34249 86.0677
lradius 30.8991
lwrist 4.85857
lhand -5.18709 19.0837
lfingers 7.12502
lthumb 20.6136 48.0091
rfemur -33.3314 21.4692 4.5077
rtibia 24.1256
rfoot -14.8681 -19.6314
rtoes 5.36165
lfemur 15.9303 -13.256 -36.4575
ltibia -2.70347e-014
lfoot -10.5438 9.10023
ltoes 12.4629
481
root 0.700932 15.8153 37.638 1.4776 -0.351455 7.63817
lowerback 12.0421 -0.0151801 -10.6175
upperback -4.81751 -1.78322 0.455675
thorax -11.8429 -0.00546577 6.90086
lowerneck -9.50349 -6.00444 -5.20629
upperneck 19.7561 -8.3845 4.59479
head 8.09127 -3.95534 1.54146
rclavicle 1.41634e-015 -2.46493e-014
rhumerus -48.5152 -10.273 -77.4962
rradius 25.0641
rwrist 1.00401
rhand -8.41404 19.9839
rfingers 7.12502
rthumb 17.5104 -9.24749
lclavicle 1.41634e-015 -2.46493e-014
lhumerus -32.8754 3.37118 86.129
lradius 30.7676
lwrist 4.90243
lhand -5.17852 18.9483
lfingers 7.12502
lthumb 20.6219 47.8728
rfemur -33.4542 22.5423 3.22017
rtibia 23.3401
rfoot -15.8549 -19.9432
rtoes 5.82718
lfemur 16.4234 -13.1906 -37.0333
ltibia 4.77083e-014
lfoot -10.5502 9.0421
ltoes 10.6407
482
root 0.679523 15.8098 37.7468 1.48881 -0.210788 7.30563
lowerback 11.8976 -0.00711508 -10.2292
upperback -4.65033 -1.6733 0.498229
thorax -11.5844 -0.00349405 6.69653
lowerneck -9.5909 -6.10729 -5.29598
upperneck 19.5717 -8.53561 4.78173
head 8.06645 -4.01558 1.5996
rclavicle -4.32357e-015 1.03368e-014
rhumerus -47.8904 -10.4198 -77.6499
rradius 24.7933
rwrist 1.12386
rhand -8.53111 20.242
rfingers 7.12502
rthumb 17.3978 -8.99936
lclavicle -4.32357e-015 1.03368e-014
lhumerus -32.3365 3.22738 86.209
lradius 30.3205
lwrist 5.03066
lhand -5.24175 18.6539
lfingers 7.12502
lthumb 20.5611 47.585
rfemur -33.6433 24.0967 2.80786
rtibia 22.6418
rfoot -17.0611 -20.7091
rtoes 8.47079
lfemur 16.8928 -12.9967 -36.6119
ltibia -3.81667e-014
lfoot -10.733 8.81852
ltoes 9.84136
483
root 0.650793 15.8031 37.8547 1.50718 -0.124493 6.76295
lowerback 12.0091 0.0221067 -9.80393
upperback -4.67814 -1.55856 0.665065
thorax -11.7033 0.0352861 6.62197
lowerneck -9.67795 -6.04259 -5.10302
upperneck 19.6928 -8.45195 4.63934
head 8.10266 -3.97204 1.52728
rclavicle 5.93869e-015 1.35174e-014
rhumerus -47.6578 -10.579 -77.5748
rradius 24.6986
rwrist 1.45741
rhand -8.43903 20.3367
rfingers 7.12502
rthumb 17.4864 -8.89682
lclavicle 5.93869e-015 1.35174e-014
lhumerus -32.2088 3.1727 86.2907
lradius 29.9724
lwrist 4.91762
lhand -5.22878 18.5571
lfingers 7.12502
lthumb 20.5736 47.4869
rfemur -33.8011 25.7614 2.66751
rtibia 21.938
rfoot -18.7887 -21.1445
rtoes 11.7416
lfemur 17.3204 -12.7668 -35.8925
ltibia -7.63333e-014
lfoot -11.0332 8.46225
ltoes 9.57835
484
root 0.62329 15.7849 37.9725 1.44834 0.0900329 6.63141
lowerback 12.1661 0.0295051 -9.77293
upperback -4.69773 -1.55565 0.724585
thorax -11.82 0.0451431 6.6762
lowerneck -9.95182 -6.0766 -5.22559
upperneck 19.9471 -8.50745 4.77034
head 8.2521 -3.9867 1.57379
rclavicle -4.96962e-016 -8.74653e-015
rhumerus -47.6281 -10.501 -77.6254
rradius 24.9745
rwrist 1.65066
rhand -8.25143 20.0957
rfingers 7.12502
rthumb 17.6669 -9.12166
lclavicle -4.96962e-016 -8.74653e-015
lhumerus -32.1933 3.30723 86.3023
lradius 29.7554
lwrist 4.64427
lhand -5.05061 18.809
lfingers 7.12502
lthumb 20.7448 47.7202
rfemur -33.5632 26.7468 2.41741
rtibia 21.171
rfoot -19.7676 -21.331
rtoes 12.8186
lfemur 17.9007 -12.6347 -35.6767
ltibia -5.725e-014
lfoot -11.242 8.18184
ltoes 8.12429
485
root 0.609729 15.7658 38.0949 1.47688 0.509312 6.75919
lowerback 12.1978 -0.0553999 -9.73133
upperback -4.71092 -1.67553 0.647372
thorax -11.8333 -0.0174945 6.59266
lowerneck -10.0277 -6.23633 -5.4428
upperneck 20.1218 -8.74166 4.97421
head 8.35765 -4.09048 1.64623
rclavicle -5.71506e-016 1.27222e-014
rhumerus -47.3825 -10.2828 -77.8356
rradius 24.9432
rwrist 1.61093
rhand -8.29639 20.0422
rfingers 7.12502
rthumb 17.6236 -9.17906
lclavicle -5.71506e-016 1.27222e-014
lhumerus -32.1779 3.50976 86.2465
lradius 29.6142
lwrist 4.34017
lhand -4.86441 18.8913
lfingers 7.12502
lthumb 20.9237 47.7828
rfemur -33.1328 26.5126 2.32782
rtibia 20.6197
rfoot -19.8291 -20.9718
rtoes 12.9473
lfemur 18.4315 -12.7088 -35.8
ltibia -4.45278e-014
lfoot -11.3409 7.90774
ltoes 7.13217
486
root 0.592404 15.7523 38.2218 1.39275 0.76423 6.57285
lowerback 12.2545 -0.104496 -9.51118
upperback -4.71354 -1.70179 0.721134
thorax -11.8646 -0.0412035 6.55766
lowerneck -9.83693 -6.25411 -5.56425
upperneck 19.9983 -8.76628 5.06854
head 8.29303 -4.1073 1.70113
rclavicle 1.2424e-016 1.66979e-014
rhumerus -47.2609 -9.8654 -78.0532
rradius 25.0248
rwrist 1.2861
rhand -8.3257 19.9889
rfingers 7.12502
rthumb 17.5954 -9.23488
lclavicle 1.2424e-016 1.66979e-014
lhumerus -32.2196 3.73073 86.2753
lradius 29.4145
lwrist 4.23786
lhand -5.06735 18.8254
lfingers 7.12502
lthumb 20.7287 47.7383
rfemur -32.8563 26.3706 2.76146
rtibia 20.7538
rfoot -20.2635 -19.9437
rtoes 14.9063
lfemur 19.0353 -12.5956 -35.5905
ltibia -1.90833e-014
lfoot -11.3961 7.71735
ltoes 5.80629
